<svg width="6" height="5" viewBox="0 0 6 5" fill="none" xmlns="http://www.w3.org/2000/svg">
<path d="M1.90269 4.44317C1.81139 4.40566 1.72852 4.35068 1.65887 4.28143L0.220343 2.86268C0.0792599 2.72354 0 2.53482 0 2.33804C0 2.14126 0.0792599 1.95254 0.220343 1.8134C0.361427 1.67426 0.552777 1.59609 0.752299 1.59609C0.951821 1.59609 1.14317 1.67426 1.28426 1.8134L2.19083 2.7149L4.71574 0.217313C4.85683 0.0781694 5.04818 0 5.2477 0C5.44722 0 5.63857 0.0781694 5.77966 0.217313C5.92074 0.356456 6 0.545174 6 0.741953C6 0.938731 5.92074 1.12745 5.77966 1.26659L2.72278 4.28143C2.65313 4.35068 2.57027 4.40566 2.47897 4.44317C2.38767 4.48069 2.28974 4.5 2.19083 4.5C2.09192 4.5 1.99399 4.48069 1.90269 4.44317Z" fill="#FFC200"/>
</svg>
